<?xml version="1.0" encoding="UTF-8"?>
<svg width="334px" height="334px" viewBox="0 0 334 334" version="1.1" xmlns="http://www.w3.org/2000/svg" xmlns:xlink="http://www.w3.org/1999/xlink">
    <title>ic_launcher</title>
    <defs>
        <filter x="-7.7%" y="-7.7%" width="115.3%" height="115.3%" filterUnits="objectBoundingBox" id="filter-1">
            <feOffset dx="6" dy="6" in="SourceAlpha" result="shadowOffsetOuter1"></feOffset>
            <feGaussianBlur stdDeviation="3" in="shadowOffsetOuter1" result="shadowBlurOuter1"></feGaussianBlur>
            <feColorMatrix values="0 0 0 0 0.149019608   0 0 0 0 0.196078431   0 0 0 0 0.219607843  0 0 0 0.2 0" type="matrix" in="shadowBlurOuter1" result="shadowMatrixOuter1"></feColorMatrix>
            <feMerge>
                <feMergeNode in="shadowMatrixOuter1"></feMergeNode>
                <feMergeNode in="SourceGraphic"></feMergeNode>
            </feMerge>
        </filter>
        <filter x="-17.1%" y="-11.6%" width="134.3%" height="120.8%" filterUnits="objectBoundingBox" id="filter-2">
            <feOffset dx="6" dy="6" in="SourceAlpha" result="shadowOffsetOuter1"></feOffset>
            <feGaussianBlur stdDeviation="3" in="shadowOffsetOuter1" result="shadowBlurOuter1"></feGaussianBlur>
            <feColorMatrix values="0 0 0 0 0.149019608   0 0 0 0 0.196078431   0 0 0 0 0.219607843  0 0 0 0.2 0" type="matrix" in="shadowBlurOuter1" result="shadowMatrixOuter1"></feColorMatrix>
            <feMerge>
                <feMergeNode in="shadowMatrixOuter1"></feMergeNode>
                <feMergeNode in="SourceGraphic"></feMergeNode>
            </feMerge>
        </filter>
    </defs>
    <g id="Landing-page" stroke="none" stroke-width="1" fill="none" fill-rule="evenodd">
        <g id="DC-landing-1" transform="translate(-553.000000, -6084.000000)">
            <g id="ic_launcher" transform="translate(570.000000, 6101.000000)">
                <g id="Background-Copy" filter="url(#filter-1)">
                    <ellipse id="Oval" fill="#091959" cx="150" cy="149.999999" rx="150" ry="149.999999"></ellipse>
                    <path d="M150,148.295455 C232.842712,148.295455 300,215.452742 300,298.295455 C300,298.580059 299.999207,298.864479 299.997624,299.148711 L300,300 C300,217.157287 232.842712,150 150,150 C67.4418923,150 0.461620684,216.696644 0.00237579456,299.146743 L-2.27373675e-13,298.295455 C-2.27373675e-13,215.452742 67.1572875,148.295455 150,148.295455 Z" id="Combined-Shape" fill-opacity="0.2" fill="#05071A" transform="translate(150.000000, 224.147727) rotate(180.000000) translate(-150.000000, -224.147727) "></path>
                    <path d="M150,0 C232.842712,0 300,67.1572872 300,150 C300,150.284605 299.999207,150.569024 299.997624,150.853257 L300,151.704545 C300,68.8618327 232.842712,1.70454545 150,1.70454545 C67.4418923,1.70454545 0.461620684,68.4011897 0.00237579456,150.851289 L5.68434189e-13,150 C5.68434189e-13,67.1572872 67.1572875,0 150,0 Z" id="Combined-Shape" fill-opacity="0.2" fill="#FFFFFF"></path>
                </g>
                <g id="DreamCatcher" filter="url(#filter-2)" transform="translate(61.363636, 28.977273)">
                    <g id="ICON-SHAPE" transform="translate(0.000000, 1.569976)">
                        <path d="M39.9776148,87.9186599 C62.0743802,97.4118609 79.8259138,114.851964 89.4886364,136.561067 C99.1513589,114.851964 116.902893,97.4118609 138.999658,87.9186599 C116.902893,78.4254589 99.1513589,60.9853557 89.4886364,39.2762529 C79.8259138,60.9853557 62.0743802,78.4254589 39.9776148,87.9186599 Z M97.4786932,1.56997607 C97.4786932,44.9236681 133.251396,80.0687795 177.379261,80.0687795 L177.379261,95.7685402 C133.251396,95.7685402 97.4786932,130.913652 97.4786932,174.267344 L81.4985795,174.267344 C81.4985795,130.913652 45.7258767,95.7685402 1.59801136,95.7685402 L1.59801136,80.0687795 C45.7258767,80.0687795 81.4985795,44.9236681 81.4985795,1.56997607 L97.4786932,1.56997607 Z" id="Combined-Shape" fill="#FAFDFF" fill-rule="nonzero"></path>
                        <ellipse id="Oval-3" stroke="#FAFDFF" stroke-width="15.3409091" cx="89.4886364" cy="87.9186599" rx="89.4886364" ry="87.9186599"></ellipse>
                    </g>
                    <g id="PERJE" transform="translate(25.568182, 184.090908)">
                        <g transform="translate(54.545455, 18.750000)">
                            <path d="M8.24937646,47.7867139 C10.4847144,47.7867139 16.8720462,36.8050312 16.8720462,23.6255088 C16.8720462,10.4459864 12.3574619,2.86306433 8.23204861,0.0594413891 C7.02943698,-0.757851176 8.2332259,7.06006912 5.34796588,10.7755405 C3.17473073,14.8910709 0,17.0076747 0,23.8933163 C0,32.1886476 6.6263931,47.7867139 8.24937646,47.7867139 Z" id="PERJE-glavni" fill="#FAFDFF" transform="translate(8.436023, 23.893357) scale(-1, 1) rotate(180.000000) translate(-8.436023, -23.893357) "></path>
                            <path d="M16.8645846,25.0839081 C16.8695376,24.7794431 16.8720462,24.471879 16.8720462,24.1612051 C16.8720462,10.9816827 10.4847144,0 8.24937646,0 C6.6263931,0 0,15.5980663 0,23.8933976 C0,24.2047689 0.00649195259,24.5063881 0.0190896805,24.7988811 C0.409598821,16.3421818 6.6771534,1.70454545 8.24937646,1.70454545 C10.4403618,1.70454545 16.6202115,12.2547641 16.8645846,25.0839081 L16.8645846,25.0839081 Z" id="Combined-Shape" fill-opacity="0.2" fill="#FFFFFF"></path>
                            <path d="M16.8645846,23.3793627 C16.8695315,23.6390658 16.8720462,23.8997028 16.8720462,24.1612051 C16.8720462,37.3407275 12.3574619,44.9236496 8.23204861,47.7272725 C7.02943698,48.5445651 8.2332259,40.7266448 5.34796588,37.0111734 C3.17473073,32.895643 0,30.7790392 0,23.8933976 C0,23.6339535 0.00648182593,23.3673659 0.0190896805,23.0943356 C0.285077129,29.2700086 3.27300526,31.3772034 5.34796588,35.306628 C8.2332259,39.0220993 7.02943698,46.8400196 8.23204861,46.0227271 C12.2602157,43.2851924 16.6594226,35.9910228 16.8645846,23.3793627 Z" id="Combined-Shape" fill-opacity="0.2" fill="#263238"></path>
                        </g>
                        <g transform="translate(109.090909, 0.000000)">
                            <path d="M8.24937646,47.7867139 C10.4847144,47.7867139 16.8720462,36.8050312 16.8720462,23.6255088 C16.8720462,10.4459864 12.3574619,2.86306433 8.23204861,0.0594413891 C7.02943698,-0.757851176 8.2332259,7.06006912 5.34796588,10.7755405 C3.17473073,14.8910709 0,17.0076747 0,23.8933163 C0,32.1886476 6.6263931,47.7867139 8.24937646,47.7867139 Z" id="PERJE-glavni" fill="#FAFDFF" transform="translate(8.436023, 23.893357) scale(-1, 1) rotate(180.000000) translate(-8.436023, -23.893357) "></path>
                            <path d="M16.8645846,25.0839081 C16.8695376,24.7794431 16.8720462,24.471879 16.8720462,24.1612051 C16.8720462,10.9816827 10.4847144,0 8.24937646,0 C6.6263931,0 0,15.5980663 0,23.8933976 C0,24.2047689 0.00649195259,24.5063881 0.0190896805,24.7988811 C0.409598821,16.3421818 6.6771534,1.70454545 8.24937646,1.70454545 C10.4403618,1.70454545 16.6202115,12.2547641 16.8645846,25.0839081 L16.8645846,25.0839081 Z" id="Combined-Shape" fill-opacity="0.2" fill="#FFFFFF"></path>
                            <path d="M16.8645846,23.3793627 C16.8695315,23.6390658 16.8720462,23.8997028 16.8720462,24.1612051 C16.8720462,37.3407275 12.3574619,44.9236496 8.23204861,47.7272725 C7.02943698,48.5445651 8.2332259,40.7266448 5.34796588,37.0111734 C3.17473073,32.895643 0,30.7790392 0,23.8933976 C0,23.6339535 0.00648182593,23.3673659 0.0190896805,23.0943356 C0.285077129,29.2700086 3.27300526,31.3772034 5.34796588,35.306628 C8.2332259,39.0220993 7.02943698,46.8400196 8.23204861,46.0227271 C12.2602157,43.2851924 16.6594226,35.9910228 16.8645846,23.3793627 Z" id="Combined-Shape" fill-opacity="0.2" fill="#263238"></path>
                        </g>
                        <g>
                            <path d="M8.24937646,47.7867139 C10.4847144,47.7867139 16.8720462,36.8050312 16.8720462,23.6255088 C16.8720462,10.4459864 12.3574619,2.86306433 8.23204861,0.0594413891 C7.02943698,-0.757851176 8.2332259,7.06006912 5.34796588,10.7755405 C3.17473073,14.8910709 0,17.0076747 0,23.8933163 C0,32.1886476 6.6263931,47.7867139 8.24937646,47.7867139 Z" id="PERJE-glavni" fill="#FAFDFF" transform="translate(8.436023, 23.893357) scale(-1, 1) rotate(180.000000) translate(-8.436023, -23.893357) "></path>
                            <path d="M16.8645846,25.0839081 C16.8695376,24.7794431 16.8720462,24.471879 16.8720462,24.1612051 C16.8720462,10.9816827 10.4847144,0 8.24937646,0 C6.6263931,0 0,15.5980663 0,23.8933976 C0,24.2047689 0.00649195259,24.5063881 0.0190896805,24.7988811 C0.409598821,16.3421818 6.6771534,1.70454545 8.24937646,1.70454545 C10.4403618,1.70454545 16.6202115,12.2547641 16.8645846,25.0839081 L16.8645846,25.0839081 Z" id="Combined-Shape" fill-opacity="0.2" fill="#FFFFFF"></path>
                            <path d="M16.8645846,23.3793627 C16.8695315,23.6390658 16.8720462,23.8997028 16.8720462,24.1612051 C16.8720462,37.3407275 12.3574619,44.9236496 8.23204861,47.7272725 C7.02943698,48.5445651 8.2332259,40.7266448 5.34796588,37.0111734 C3.17473073,32.895643 0,30.7790392 0,23.8933976 C0,23.6339535 0.00648182593,23.3673659 0.0190896805,23.0943356 C0.285077129,29.2700086 3.27300526,31.3772034 5.34796588,35.306628 C8.2332259,39.0220993 7.02943698,46.8400196 8.23204861,46.0227271 C12.2602157,43.2851924 16.6594226,35.9910228 16.8645846,23.3793627 Z" id="Combined-Shape" fill-opacity="0.2" fill="#263238"></path>
                        </g>
                    </g>
                </g>
            </g>
        </g>
    </g>
</svg>